<svg width="227.765625px" height="40.79999999999998px" xmlns="http://www.w3.org/2000/svg" viewBox="36.1171875 -6.3999999999999915 427.765625 130.79999999999998" style="background: rgba(0, 0, 0, 0);" preserveAspectRatio="xMidYMid"><defs><filter id="editing-hole" x="-100%" y="-100%" width="300%" height="300%"><feFlood flood-color="#000000" result="black"></feFlood><feMorphology operator="dilate" radius="2" in="SourceGraphic" result="erode"></feMorphology><feGaussianBlur in="erode" stdDeviation="4" result="blur"></feGaussianBlur><feOffset in="blur" dx="2" dy="2" result="offset"></feOffset><feComposite operator="atop" in="offset" in2="black" result="merge"></feComposite><feComposite operator="in" in="merge" in2="SourceGraphic" result="inner-shadow"></feComposite></filter></defs><g filter="url(#editing-hole)"><g transform="translate(99.72998046875, 104.60000038146973)"><path d="M3.46-2.11L3.46-2.11Q5.18-0.96 8.90-0.06L8.90-0.06L8.90-0.06Q12.61 0.83 15.42 0.83L15.42 0.83L15.42 0.83Q20.16 0.83 23.65-0.64L23.65-0.64L23.65-0.64Q27.14-2.11 28.96-4.67L28.96-4.67L28.96-4.67Q30.78-7.23 30.78-10.56L30.78-10.56L30.78-10.56Q30.78-13.63 29.50-15.84L29.50-15.84L29.50-15.84Q28.22-18.05 25.76-19.78L25.76-19.78L25.76-19.78Q23.30-21.50 19.26-23.36L19.26-23.36L19.26-23.36Q14.78-25.41 12.48-26.75L12.48-26.75L12.48-26.75Q10.18-28.10 8.93-29.73L8.93-29.73L8.93-29.73Q7.68-31.36 7.68-33.66L7.68-33.66L7.68-33.66Q7.68-36.74 10.21-38.46L10.21-38.46L10.21-38.46Q12.74-40.19 16.96-40.19L16.96-40.19L16.96-40.19Q19.78-40.19 21.73-39.62L21.73-39.62L21.73-39.62Q23.68-39.04 26.05-37.95L26.05-37.95L27.78-41.86L27.78-41.86Q25.54-43.01 22.62-43.78L22.62-43.78L22.62-43.78Q19.71-44.54 16.64-44.54L16.64-44.54L16.64-44.54Q12.48-44.54 9.31-43.10L9.31-43.10L9.31-43.10Q6.14-41.66 4.45-39.17L4.45-39.17L4.45-39.17Q2.75-36.67 2.75-33.60L2.75-33.60L2.75-33.60Q2.75-29.25 5.54-26.24L5.54-26.24L5.54-26.24Q8.32-23.23 14.27-20.67L14.27-20.67L14.27-20.67Q18.43-18.88 20.83-17.50L20.83-17.50L20.83-17.50Q23.23-16.13 24.51-14.43L24.51-14.43L24.51-14.43Q25.79-12.74 25.79-10.50L25.79-10.50L25.79-10.50Q25.79-7.36 23.07-5.41L23.07-5.41L23.07-5.41Q20.35-3.46 15.36-3.46L15.36-3.46L15.36-3.46Q12.54-3.46 9.63-4.26L9.63-4.26L9.63-4.26Q6.72-5.06 4.67-6.08L4.67-6.08L3.46-2.11ZM49.54-31.87L49.54-31.87Q56.45-31.87 60.38-27.36L60.38-27.36L60.38-27.36Q64.32-22.85 64.32-15.42L64.32-15.42L64.32-15.42Q64.32-10.69 62.50-7.01L62.50-7.01L62.50-7.01Q60.67-3.33 57.31-1.25L57.31-1.25L57.31-1.25Q53.95 0.83 49.41 0.83L49.41 0.83L49.41 0.83Q46.02 0.83 42.30-1.54L42.30-1.54L42.30 13.31L37.25 14.02L37.25-31.04L40.26-31.04L41.34-28.86L41.34-28.86Q43.26-30.27 45.44-31.07L45.44-31.07L45.44-31.07Q47.62-31.87 49.54-31.87L49.54-31.87ZM49.54-3.46L49.54-3.46Q54.14-3.46 56.64-6.78L56.64-6.78L56.64-6.78Q59.14-10.11 59.20-15.36L59.20-15.36L59.20-15.36Q59.20-20.86 56.74-24.22L56.74-24.22L56.74-24.22Q54.27-27.58 49.60-27.58L49.60-27.58L49.60-27.58Q47.30-27.58 45.57-26.88L45.57-26.88L45.57-26.88Q43.84-26.18 42.30-24.70L42.30-24.70L42.30-6.21L42.30-6.21Q43.84-4.86 45.57-4.16L45.57-4.16L45.57-4.16Q47.30-3.46 49.54-3.46L49.54-3.46ZM73.09-25.34L73.09-25.34Q75.39-26.37 77.34-26.91L77.34-26.91L77.34-26.91Q79.30-27.46 82.05-27.46L82.05-27.46L82.05-27.46Q85.57-27.46 87.20-25.47L87.20-25.47L87.20-25.47Q88.83-23.49 88.83-20.03L88.83-20.03L88.83-18.30L80.83-18.30L80.83-18.30Q75.78-18.30 72.70-15.81L72.70-15.81L72.70-15.81Q69.63-13.31 69.63-8.83L69.63-8.83L69.63-8.83Q69.63-4.54 72.35-1.86L72.35-1.86L72.35-1.86Q75.07 0.83 80.26 0.83L80.26 0.83L80.26 0.83Q82.69 0.83 85.25-0.35L85.25-0.35L85.25-0.35Q87.81-1.54 89.54-3.14L89.54-3.14L90.18 0L93.95 0L93.95-21.44L93.95-21.44Q93.95-24.45 92.42-26.82L92.42-26.82L92.42-26.82Q90.88-29.18 88.13-30.53L88.13-30.53L88.13-30.53Q85.38-31.87 81.86-31.87L81.86-31.87L81.86-31.87Q79.74-31.87 76.51-31.10L76.51-31.10L76.51-31.10Q73.28-30.34 71.62-29.18L71.62-29.18L73.09-25.34ZM74.30-8.83L74.30-8.83Q74.30-11.39 76-13.15L76-13.15L76-13.15Q77.70-14.91 80.70-14.91L80.70-14.91L88.90-14.91L88.90-7.87L88.90-7.87Q87.17-5.82 84.90-4.54L84.90-4.54L84.90-4.54Q82.62-3.26 80.13-3.26L80.13-3.26L80.13-3.26Q77.25-3.26 75.78-4.93L75.78-4.93L75.78-4.93Q74.30-6.59 74.30-8.83L74.30-8.83ZM123.33-5.63L123.33-5.63Q121.09-4.48 119.30-3.97L119.30-3.97L119.30-3.97Q117.50-3.46 114.69-3.46L114.69-3.46L114.69-3.46Q110.02-3.46 107.46-6.85L107.46-6.85L107.46-6.85Q104.90-10.24 104.90-15.68L104.90-15.68L104.90-15.68Q104.96-20.86 107.65-24.22L107.65-24.22L107.65-24.22Q110.34-27.58 114.94-27.58L114.94-27.58L114.94-27.58Q117.63-27.58 119.33-27.07L119.33-27.07L119.33-27.07Q121.02-26.56 123.58-25.47L123.58-25.47L125.12-29.06L125.12-29.06Q123.26-30.27 120.22-31.07L120.22-31.07L120.22-31.07Q117.18-31.87 115.07-31.87L115.07-31.87L115.07-31.87Q110.46-31.87 107.01-29.79L107.01-29.79L107.01-29.79Q103.55-27.71 101.66-24.03L101.66-24.03L101.66-24.03Q99.78-20.35 99.78-15.62L99.78-15.62L99.78-15.62Q99.78-10.82 101.57-7.07L101.57-7.07L101.57-7.07Q103.36-3.33 106.75-1.25L106.75-1.25L106.75-1.25Q110.14 0.83 114.75 0.83L114.75 0.83L114.75 0.83Q116.86 0.83 119.94 0.03L119.94 0.03L119.94 0.03Q123.01-0.77 124.93-1.98L124.93-1.98L123.33-5.63ZM156.80-14.72L156.80-14.72Q156.80-22.40 153.57-27.14L153.57-27.14L153.57-27.14Q150.34-31.87 143.55-31.87L143.55-31.87L143.55-31.87Q139.07-31.87 135.78-29.79L135.78-29.79L135.78-29.79Q132.48-27.71 130.78-24.03L130.78-24.03L130.78-24.03Q129.09-20.35 129.09-15.62L129.09-15.62L129.09-15.62Q129.09-8.13 133.25-3.65L133.25-3.65L133.25-3.65Q137.41 0.83 145.34 0.83L145.34 0.83L145.34 0.83Q148.54 0.83 151.17-0.03L151.17-0.03L151.17-0.03Q153.79-0.90 156.42-2.37L156.42-2.37L154.82-6.08L154.82-6.08Q151.94-4.67 149.86-4.03L149.86-4.03L149.86-4.03Q147.78-3.39 145.28-3.39L145.28-3.39L145.28-3.39Q139.78-3.39 137.12-6.43L137.12-6.43L137.12-6.43Q134.46-9.47 134.27-14.72L134.27-14.72L156.80-14.72ZM134.40-18.18L134.40-18.18Q134.85-22.53 137.12-25.06L137.12-25.06L137.12-25.06Q139.39-27.58 143.36-27.58L143.36-27.58L143.36-27.58Q150.72-27.58 151.81-18.18L151.81-18.18L134.40-18.18ZM162.37-2.11L162.37-2.11Q164.10-0.96 167.81-0.06L167.81-0.06L167.81-0.06Q171.52 0.83 174.34 0.83L174.34 0.83L174.34 0.83Q179.07 0.83 182.56-0.64L182.56-0.64L182.56-0.64Q186.05-2.11 187.87-4.67L187.87-4.67L187.87-4.67Q189.70-7.23 189.70-10.56L189.70-10.56L189.70-10.56Q189.70-13.63 188.42-15.84L188.42-15.84L188.42-15.84Q187.14-18.05 184.67-19.78L184.67-19.78L184.67-19.78Q182.21-21.50 178.18-23.36L178.18-23.36L178.18-23.36Q173.70-25.41 171.39-26.75L171.39-26.75L171.39-26.75Q169.09-28.10 167.84-29.73L167.84-29.73L167.84-29.73Q166.59-31.36 166.59-33.66L166.59-33.66L166.59-33.66Q166.59-36.74 169.12-38.46L169.12-38.46L169.12-38.46Q171.65-40.19 175.87-40.19L175.87-40.19L175.87-40.19Q178.69-40.19 180.64-39.62L180.64-39.62L180.64-39.62Q182.59-39.04 184.96-37.95L184.96-37.95L186.69-41.86L186.69-41.86Q184.45-43.01 181.54-43.78L181.54-43.78L181.54-43.78Q178.62-44.54 175.55-44.54L175.55-44.54L175.55-44.54Q171.39-44.54 168.22-43.10L168.22-43.10L168.22-43.10Q165.06-41.66 163.36-39.17L163.36-39.17L163.36-39.17Q161.66-36.67 161.66-33.60L161.66-33.60L161.66-33.60Q161.66-29.25 164.45-26.24L164.45-26.24L164.45-26.24Q167.23-23.23 173.18-20.67L173.18-20.67L173.18-20.67Q177.34-18.88 179.74-17.50L179.74-17.50L179.74-17.50Q182.14-16.13 183.42-14.43L183.42-14.43L183.42-14.43Q184.70-12.74 184.70-10.50L184.70-10.50L184.70-10.50Q184.70-7.36 181.98-5.41L181.98-5.41L181.98-5.41Q179.26-3.46 174.27-3.46L174.27-3.46L174.27-3.46Q171.46-3.46 168.54-4.26L168.54-4.26L168.54-4.26Q165.63-5.06 163.58-6.08L163.58-6.08L162.37-2.11ZM212.74-32L212.74-32Q217.66-32 220.06-29.02L220.06-29.02L220.06-29.02Q222.46-26.05 222.46-21.06L222.46-21.06L222.46-0.06L217.41-0.06L217.41-20.35L217.41-20.35Q217.41-23.81 216.13-25.73L216.13-25.73L216.13-25.73Q214.85-27.65 211.84-27.65L211.84-27.65L211.84-27.65Q209.54-27.65 206.62-26.05L206.62-26.05L206.62-26.05Q203.71-24.45 201.47-22.02L201.47-22.02L201.47 0L196.42 0L196.42-44.54L201.47-45.18L201.47-27.07L201.47-27.07Q203.71-29.25 206.82-30.62L206.82-30.62L206.82-30.62Q209.92-32 212.74-32L212.74-32ZM232.77-37.25L232.77-37.25Q234.18-37.25 235.20-38.24L235.20-38.24L235.20-38.24Q236.22-39.23 236.22-40.64L236.22-40.64L236.22-40.64Q236.22-42.05 235.20-43.07L235.20-43.07L235.20-43.07Q234.18-44.10 232.77-44.10L232.77-44.10L232.77-44.10Q231.30-44.10 230.34-43.10L230.34-43.10L230.34-43.10Q229.38-42.11 229.38-40.64L229.38-40.64L229.38-40.64Q229.38-39.17 230.34-38.21L230.34-38.21L230.34-38.21Q231.30-37.25 232.77-37.25L232.77-37.25ZM230.27 0L235.39 0L235.39-31.04L230.27-31.04L230.27 0ZM256.06-31.87L256.06-31.87Q262.98-31.87 266.91-27.36L266.91-27.36L266.91-27.36Q270.85-22.85 270.85-15.42L270.85-15.42L270.85-15.42Q270.85-10.69 269.02-7.01L269.02-7.01L269.02-7.01Q267.20-3.33 263.84-1.25L263.84-1.25L263.84-1.25Q260.48 0.83 255.94 0.83L255.94 0.83L255.94 0.83Q252.54 0.83 248.83-1.54L248.83-1.54L248.83 13.31L243.78 14.02L243.78-31.04L246.78-31.04L247.87-28.86L247.87-28.86Q249.79-30.27 251.97-31.07L251.97-31.07L251.97-31.07Q254.14-31.87 256.06-31.87L256.06-31.87ZM256.06-3.46L256.06-3.46Q260.67-3.46 263.17-6.78L263.17-6.78L263.17-6.78Q265.66-10.11 265.73-15.36L265.73-15.36L265.73-15.36Q265.73-20.86 263.26-24.22L263.26-24.22L263.26-24.22Q260.80-27.58 256.13-27.58L256.13-27.58L256.13-27.58Q253.82-27.58 252.10-26.88L252.10-26.88L252.10-26.88Q250.37-26.18 248.83-24.70L248.83-24.70L248.83-6.21L248.83-6.21Q250.37-4.86 252.10-4.16L252.10-4.16L252.10-4.16Q253.82-3.46 256.06-3.46L256.06-3.46ZM275.39-1.79L275.39-1.79Q277.12-0.58 280.13 0.13L280.13 0.13L280.13 0.13Q283.14 0.83 285.31 0.83L285.31 0.83L285.31 0.83Q291.33 0.83 294.56-1.54L294.56-1.54L294.56-1.54Q297.79-3.90 297.79-8.19L297.79-8.19L297.79-8.19Q297.79-14.21 287.36-18.05L287.36-18.05L287.36-18.05Q283.90-19.20 282.05-20.42L282.05-20.42L282.05-20.42Q280.19-21.63 280.13-23.30L280.13-23.30L280.13-23.30Q280.13-25.28 281.95-26.53L281.95-26.53L281.95-26.53Q283.78-27.78 286.66-27.78L286.66-27.78L286.66-27.78Q289.02-27.78 290.88-27.20L290.88-27.20L290.88-27.20Q292.74-26.62 294.85-25.66L294.85-25.66L296.45-29.12L296.45-29.12Q294.78-30.34 291.87-31.10L291.87-31.10L291.87-31.10Q288.96-31.87 286.78-31.87L286.78-31.87L286.78-31.87Q281.41-31.87 278.30-29.54L278.30-29.54L278.30-29.54Q275.20-27.20 275.20-23.10L275.20-23.10L275.20-23.10Q275.20-19.71 278.02-17.54L278.02-17.54L278.02-17.54Q280.83-15.36 285.31-13.89L285.31-13.89L285.31-13.89Q292.99-11.33 292.99-7.87L292.99-7.87L292.99-7.87Q292.99-5.70 290.94-4.48L290.94-4.48L290.94-4.48Q288.90-3.26 285.38-3.26L285.38-3.26L285.38-3.26Q281.34-3.26 276.99-5.44L276.99-5.44L275.39-1.79Z" fill="#ffffff"></path></g></g><style>text {
  font-size: 64px;
  font-family: Arial Black;
  dominant-baseline: text-top;
  text-anchor: middle;
}</style></svg>